# xmcd
#
# Track frame offsets: 
#        150
#        24240
#        43758
#        61068
#        77268
#        98045
#        120945
#        142288
#        162654
#        179105
#        202198
#        214210
#        250703
#        284250
#        301620
#        314507
#
# Disc length: 4625 seconds
#
# Revision: 0
# Processed by: cddbd v1.5.2PL0 Copyright (c) Steve Scherf et al.
# Submitted via: ExactAudioCopy v0.99pb5
#
DISCID=e1120f10
DTITLE=Van Morrison - A Tribute to Ray charles
DYEAR=2004
DGENRE=Rhythmic Soul
TTITLE0=Claude Nobs intro All Work and No Play
TTITLE1=Have I Told You Lately that I Love You (las vegas version)
TTITLE2=I Believe to My Soul 
TTITLE3=Wild Night 
TTITLE4=Back on top
TTITLE5=Georgia on My Mind 
TTITLE6=Going Down Geneva (Brand New Cadillac) 
TTITLE7=Early in the Morning 
TTITLE8=Precious Time (Scar Finale) 
TTITLE9=Just Like A Woman
TTITLE10=Help Me 
TTITLE11=Streets of Arklow (You Don't Pull No Punches etc.) 
TTITLE12=Little Village
TTITLE13=Fast Train (with Solomon Burke)
TTITLE14=Stand by Me (with Solomon Burke) 
TTITLE15=Gloria (Claude Nobs Outro) 
EXTD=
EXTT0=
EXTT1=
EXTT2=
EXTT3=
EXTT4=
EXTT5=
EXTT6=
EXTT7=
EXTT8=
EXTT9=
EXTT10=
EXTT11=
EXTT12=
EXTT13=
EXTT14=
EXTT15=
PLAYORDER=
